<svg xmlns="http://www.w3.org/2000/svg" width="283" height="201" viewBox="0 0 283 201">
    <defs>
        <filter id="a" width="114.1%" height="224.9%" x="-7%" y="-62.4%" filterUnits="objectBoundingBox">
            <feGaussianBlur in="SourceGraphic" stdDeviation="2"/>
        </filter>
        <linearGradient id="b" x1="50%" x2="50%" y1="0%" y2="100%">
            <stop offset="0%" stop-color="#A6D2FF"/>
            <stop offset="100%" stop-color="#399EF7"/>
        </linearGradient>
        <linearGradient id="c" x1="50%" x2="50%" y1="0%" y2="100%">
            <stop offset="0%" stop-color="#A0D5FF"/>
            <stop offset="100%" stop-color="#F9FAFF"/>
        </linearGradient>
        <linearGradient id="d" x1="50%" x2="50%" y1="0%" y2="100%">
            <stop offset="0%" stop-color="#AAD0FA"/>
            <stop offset="100%" stop-color="#72B7FF"/>
        </linearGradient>
        <filter id="e" width="121.7%" height="271.4%" x="-10.9%" y="-85.7%" filterUnits="objectBoundingBox">
            <feGaussianBlur in="SourceGraphic" stdDeviation="2"/>
        </filter>
        <linearGradient id="f" x1="0%" x2="87.223%" y1="9.098%" y2="90.902%">
            <stop offset="0%" stop-color="#ABD6FD"/>
            <stop offset="100%" stop-color="#44A1FA"/>
        </linearGradient>
    </defs>
    <g fill="none" fill-rule="evenodd">
        <g transform="translate(100.854)">
            <ellipse cx="116.383" cy="191.195" fill="#EEE" filter="url(#a)" opacity=".6" rx="42.645" ry="4.805"/>
            <path fill="#093C81" d="M126.594 140.14h3.304v37.24h-3.304z"/>
            <path fill="#093C81" fill-rule="nonzero" d="M139.544 186.28l.529-.73-12.11-8.796-12.111 8.797.53.729 11.58-8.412z"/>
            <circle cx="139.842" cy="186.39" r="2.403" fill="#316ED4"/>
            <path fill="#FEA982" d="M95.644 179.482l.972 6.433h4.033l-.604-7.617z"/>
            <path fill="#FFB761" d="M121.81 140.14c11.966 1.475 19.619.776 22.958-2.096 3.34-2.873 2.687-5.664-1.957-8.373l-33.831-.937 12.83 11.406z"/>
            <path fill="#FEA982" d="M125.913 179.158l3.34 7.471h3.086l-1.029-8.33z"/>
            <path fill="#2576E8" d="M104.375 120.35c-12.36 6.523-18.539 10.9-18.539 13.135 0 2.235 2.636 17.77 7.908 46.608h8.094v-40.956l2.537-2.037c8.917 24.799 15.13 39.13 18.64 42.993l8.94.415c-1.484-19.517-4.925-33.987-10.323-43.408 3.24.07 5.949.061 8.127-.03 5.47.238 9.948-2.1 13.436-7.013 3.487-4.913-2.401-8.148-17.665-9.706l-15.172-1.403-5.983 1.403z"/>
            <path fill="#FEA982" d="M120.257 69.698l1.3 7.115 9.467-2.734c-1.417-6.188-2.125-9.795-2.125-10.82 0-1.026-2.88 1.12-8.642 6.439z"/>
            <path fill="#FDB18E" d="M111.716 53.846c1.591 4.325 2.197 7.38 1.818 9.164-.569 2.677 1.387 6.933 4.475 6.933 3.089 0 10.615-.341 11.59-5.889.65-3.699-1.036-8.53-5.059-14.492l-12.824 4.284z"/>
            <path fill="#002D58" d="M112.783 49.104c6.636-3.046 11.359-3.664 14.169-1.853 4.214 2.715 5.258 14.931 2.629 17.602-2.63 2.672.325-6.697-2.275-6.697s-1.458 2.718-2.03 3.192c-.57.474-1.82-1.266-1.46-5.837.36-4.572-2.141-1.95-4.821-1.05-2.68.9-5.016-.983-5.69-.492-.448.328-.672.933-.672 1.816-.34.494-.677.353-1.012-.424-1.153-2.68-.766-4.766 1.162-6.257z"/>
            <path fill="#FFF" d="M120.688 71.144c-1.632.129-3.332 1.106-5.101 2.93-1.77 1.826-2.654 11.69-2.654 29.59h3.878l3.877-4.203 12.408-29.55c-.835-.31-1.832-.465-2.991-.465-2.596 4.294-5.023 6.441-7.282 6.441-2.26 0-2.97-1.58-2.135-4.743z"/>
            <path fill="#FF5D5A" d="M116.897 73.494c-3.242 13.974-3.242 23.368 0 28.181l15.032-32.49 10.266 3.004c1.821 1.006 3.175 2.547 4.063 4.624 1.332 3.116 5.926 17.5 5.926 29.018 0 7.68-1.975 10.587-5.926 8.722.267 9.242-.549 14.281-2.448 15.118-10.646-5.471-18.108-8.578-22.385-9.32-4.276-.743-9.96-.743-17.05 0l6.244-6.96c-4.292-13.335-6.024-22.638-5.194-27.909.83-5.27 4.654-9.267 11.472-11.988z"/>
            <path fill="#D52D2A" d="M136.578 86.583c-1.35 3.333-1.35 6.315 0 8.947 2.025 3.947 4.262 7.584 1.363 10.199-2.9 2.614-8.11.366-18.335 4.717-10.225 4.35 3.97-2.69 14.688-2.69s5.696-8.193 3.647-12.226c-1.367-2.69-1.821-5.672-1.363-8.947z"/>
            <path fill="#D3D3D3" d="M63.203 87.022l4.786 27.547h45.647l-5.296-28.258a2 2 0 0 0-1.966-1.631h-41.2a2 2 0 0 0-1.971 2.342z"/>
            <circle cx="88.184" cy="98.65" r="2.553" fill="#FFF"/>
            <path fill="#316ED4" d="M19.98 112.811h161.873v5.106H19.981z"/>
            <path fill="#000F2A" d="M96.211 183.19c.233 1.188.919 1.782 2.056 1.782 1.138 0 1.802-.594 1.993-1.782h.79v4.397H98.77c-.33.008-1.383.607-3.16 1.797-1.778 1.19-4.47 1.626-8.079 1.307v-.954l8.68-6.547zM128.052 184.005c.46.542 1.182 1.731 2.525 1.371.895-.24 1.343-.968 1.343-2.186h.586l.694 4.193c-.386-.096-.92.12-1.601.646-1.022.79-2.562 4.942-6.696 4.942-2.756 0-3.97-.117-3.642-.353v-.645c4.195-3.22 6.459-5.877 6.791-7.968z"/>
            <circle cx="114.581" cy="186.488" r="2.403" fill="#316ED4"/>
            <path fill="#316ED4" fill-rule="nonzero" d="M49.02 116.134l-15.877 74.502 1.469.313 15.877-74.502zM151.588 115.206l16.27 75.428-1.468.317-16.27-75.429zM21.728 0v43.564h1V0z"/>
            <path fill="#2576E8" d="M20.073 40.633h3.921c.9 8.178 4.656 13.691 11.265 16.54 6.61 2.85 9.915 5.677 9.915 8.483v5.559c-8.053 1.029-15.74 1.543-23.062 1.543-7.322 0-14.644-.514-21.966-1.543v-6.452c.778-2.43 3.984-4.96 9.618-7.59 5.635-2.628 9.07-8.142 10.309-16.54z"/>
            <path fill="#000037" d="M20.073 40.633h3.921c.9 8.178 4.656 13.691 11.265 16.54-7.57 3.31-19.1 2.915-25.495 0 5.635-2.628 9.07-8.142 10.309-16.54z"/>
        </g>
        <g transform="translate(0 61.845)">
            <path fill="url(#b)" d="M.946 44.5c1.527-1.881 6.268-.293 8.453 2.795 1.457 2.059 5.523 2.636 12.198 1.732 4.222.108 6.333 1.952 6.333 5.53 0 3.58 2.921 8.38 8.764 14.404l3.52 14.226 2.678 16.16-7.413-.22c-6.535-2.573-11.162-6.522-13.882-11.845-4.08-7.985.51-11.388-1.785-16.272-2.295-4.883-10.523-1.28-13.367-4.883-2.843-3.604 1.149-9.106-2.939-11.57C-.58 52.095-.58 46.384.946 44.502z"/>
            <path fill="url(#c)" d="M18.682.252C30.219-1.143 35.055 3.26 33.19 13.462c-1.729 6.052 2.093 9.473 11.463 10.264 9.37.792 11.008 10.046 4.911 27.763v49.277h-8.468c-3.73-12.827-6.366-20.176-7.906-22.047-2.312-2.807-3.728-11.245-3.728-14.871 0-3.627 5.163-6.233 5.163-11.166 0-4.934-13.917-11.185-14.915-17.293-1-6.108 7.263-7.897 5.511-13.672C23.471 15.94-.13 5.972 18.682.252z"/>
            <path fill="#5E9FFB" fill-rule="nonzero" d="M44.937 100.707l1.11.118c4.185-39.527-4.07-70.386-24.786-92.535 19.945 23.566 27.837 54.371 23.676 92.417z" opacity=".3"/>
            <path fill="url(#d)" d="M51.675 12.884c1.273-5.36.53-15.288 10.247-12.352S60.118 10.63 58.81 14.828c-1.307 4.197-.691 6.08 1.21 7.869 1.9 1.788 4.3 1.864 0 6.204s-7.266 3.325-8.346 8.301c-1.08 4.977 2.155 5.135 2.155 11.658 0 6.522-9.67 12.695-14.541 21.259H31.05c.65-8.337.339-14.241-.93-17.714-1.905-5.21-.26-8.204 2.836-10.224 3.098-2.02 6.332-2.02 6.332-7.705 0-5.684-3.812-3.954-2.86-10.74.953-6.787 13.973-5.493 15.246-10.852z" transform="translate(11.614 29.009)"/>
            <path fill="#5E9FFB" fill-rule="nonzero" d="M49.141 97.903c4.188-31.68 12.872-53.628 26.052-65.845-13.007 11.474-22.975 33.376-27.16 65.701l1.108.144zM36.634 98.593C29.049 74.58 19.306 58.735 7.406 51.058 19.07 58.182 29.803 73.816 37.474 98.33l-.84.263z" opacity=".5"/>
            <ellipse cx="43.238" cy="131.045" fill="#EEE" filter="url(#e)" opacity=".6" rx="27.645" ry="3.5"/>
            <path fill="url(#f)" d="M25.078 97.903H60.72l-5.07 32.237H30.424z"/>
        </g>
    </g>
</svg>
