<svg xmlns="http://www.w3.org/2000/svg" width="36" height="35" viewBox="0 0 36 35">
    <path fill="#FFF" fill-rule="evenodd" d="M17.71 0c9.664 0 17.5 7.836 17.5 17.5S27.374 35 17.71 35 .21 27.164.21 17.5 8.046 0 17.71 0zm.588 6.39h-1.176c-2.485.003-2.89.017-3.992.068-1.183.054-1.99.241-2.697.516a5.442 5.442 0 0 0-1.968 1.281 5.442 5.442 0 0 0-1.281 1.968c-.275.707-.463 1.514-.516 2.697-.051 1.103-.065 1.507-.067 3.992v1.176c.002 2.485.016 2.89.067 3.993.054 1.182.242 1.99.516 2.696a5.445 5.445 0 0 0 1.281 1.968 5.443 5.443 0 0 0 1.968 1.281c.707.275 1.514.462 2.697.516 1.103.05 1.507.065 3.993.067h1.175c2.485-.002 2.89-.016 3.993-.067 1.182-.054 1.99-.241 2.696-.516a5.68 5.68 0 0 0 3.25-3.249c.274-.707.462-1.514.515-2.697.051-1.103.065-1.507.067-3.992v-1.176c-.002-2.485-.016-2.89-.066-3.992-.054-1.183-.242-1.99-.517-2.697a5.443 5.443 0 0 0-1.281-1.968 5.446 5.446 0 0 0-1.968-1.281c-.707-.275-1.514-.462-2.697-.516-1.103-.05-1.507-.065-3.992-.067zm-1.393 3.212h1.61c1.847.002 2.19.015 3.088.056.94.042 1.45.2 1.79.331.418.155.796.4 1.107.72.32.312.566.69.72 1.109.133.34.29.85.333 1.789.04.899.053 1.24.055 3.089v1.609c-.002 1.848-.014 2.19-.055 3.089-.043.939-.2 1.45-.332 1.789a3.19 3.19 0 0 1-1.829 1.828c-.34.132-.85.29-1.789.332-.86.04-1.21.052-2.856.055h-2.074c-1.647-.003-1.997-.016-2.856-.055-.94-.043-1.45-.2-1.79-.332a2.983 2.983 0 0 1-1.107-.72c-.32-.311-.566-.69-.721-1.108-.132-.34-.289-.85-.332-1.79-.039-.86-.052-1.21-.055-2.856v-2.074c.003-1.646.016-1.997.055-2.856.043-.94.2-1.45.332-1.79.155-.418.4-.796.72-1.107.311-.32.69-.566 1.109-.72.339-.133.85-.29 1.789-.333.898-.04 1.24-.053 3.088-.055h1.61zm.805 2.554a5.344 5.344 0 1 0 0 10.688 5.344 5.344 0 0 0 0-10.688zm0 2.334a3.01 3.01 0 1 1 0 6.02 3.01 3.01 0 0 1 0-6.02zm5.382-3.504a.87.87 0 1 0 0 1.74.87.87 0 0 0 0-1.74z"/>
</svg>
