<svg xmlns="http://www.w3.org/2000/svg" width="36" height="35" viewBox="0 0 36 35">
    <path fill="#FFF" fill-rule="evenodd" d="M33.25 8.706a17.408 17.408 0 0 0-6.363-6.361C24.21.78 21.284 0 18.113 0c-3.172 0-6.097.781-8.775 2.345a17.401 17.401 0 0 0-6.362 6.361C1.412 11.385.63 14.31.63 17.481c0 3.536.963 6.746 2.89 9.629 1.928 2.884 4.454 5.016 7.58 6.396-.06-1.623.038-2.966.296-4.028l2.254-9.516c-.38-.743-.57-1.668-.57-2.777 0-1.29.326-2.367.979-3.232.653-.865 1.45-1.297 2.39-1.297.759 0 1.343.25 1.753.75.41.502.614 1.131.614 1.89 0 .47-.088 1.043-.262 1.719a46.38 46.38 0 0 1-.683 2.344c-.28.888-.482 1.598-.603 2.129-.212.925-.038 1.718.524 2.378.561.66 1.305.99 2.23.99 1.624 0 2.956-.902 3.995-2.708 1.04-1.806 1.56-3.999 1.56-6.578 0-1.988-.642-3.605-1.924-4.849-1.283-1.244-3.07-1.867-5.361-1.867-2.564 0-4.64.824-6.225 2.47-1.586 1.647-2.38 3.616-2.38 5.907 0 1.366.388 2.512 1.162 3.437.258.304.341.63.25.98-.03.09-.09.318-.182.682-.09.364-.152.6-.182.706-.121.485-.41.637-.865.455-1.168-.485-2.056-1.328-2.663-2.527-.607-1.199-.91-2.587-.91-4.165a9.93 9.93 0 0 1 .489-3.05c.326-1.017.835-2 1.525-2.948a11.977 11.977 0 0 1 2.481-2.515c.963-.729 2.136-1.313 3.517-1.753 1.38-.44 2.868-.66 4.461-.66 2.155 0 4.09.478 5.804 1.434 1.715.956 3.024 2.193 3.927 3.71.903 1.518 1.354 3.142 1.354 4.872 0 2.276-.394 4.324-1.183 6.145-.789 1.821-1.904 3.251-3.346 4.29-1.442 1.04-3.08 1.56-4.918 1.56a5.4 5.4 0 0 1-2.594-.648c-.805-.433-1.359-.945-1.662-1.537a821.03 821.03 0 0 1-1.23 4.803c-.288 1.077-.88 2.321-1.775 3.733 1.624.485 3.278.727 4.962.727 3.172 0 6.097-.781 8.775-2.344a17.398 17.398 0 0 0 6.362-6.362c1.563-2.679 2.344-5.604 2.344-8.775.001-3.171-.779-6.096-2.342-8.775z"/>
</svg>
